# xmcd
#
# Track frame offsets: 
#        150
#        18014
#        27165
#        54807
#        62862
#        88864
#        107014
#        133928
#        163684
#        169684
#        198185
#
# Disc length: 3043 seconds
#
# Revision: 0
# Processed by: cddbd v1.5.2PL0 Copyright (c) Steve Scherf et al.
# Submitted via: ExactAudioCopy v0.99pb3
#
DISCID=870be10b
DTITLE=Harold Biffen - The Wormhole and the Hymn
DYEAR=2011
DGENRE=Ambient
TTITLE0=Wigan Pier
TTITLE1=Frosty Murray and the Motor Company
TTITLE2=Past the Moraine on 227 W
TTITLE3=Cavtat Blue
TTITLE4=Lost Days in Agram
TTITLE5=Summer in Céret, 1911
TTITLE6=13.7 (in medias res)
TTITLE7=Gauss
TTITLE8=Plimpton 322
TTITLE9=Alea iacta est
TTITLE10=First Love
EXTD=
EXTT0=
EXTT1=
EXTT2=
EXTT3=
EXTT4=
EXTT5=
EXTT6=
EXTT7=
EXTT8=
EXTT9=
EXTT10=
PLAYORDER=
